<?xml version="1.0" standalone="no"?>
<!DOCTYPE svg PUBLIC "-//W3C//DTD SVG 20010904//EN"
 "http://www.w3.org/TR/2001/REC-SVG-20010904/DTD/svg10.dtd">
<svg version="1.0" xmlns="http://www.w3.org/2000/svg"
 width="851.000000pt" height="851.000000pt" viewBox="0 0 851.000000 851.000000"
 preserveAspectRatio="xMidYMid meet">
<metadata>
Created by potrace 1.11, written by Peter Selinger 2001-2013
</metadata>
<g transform="translate(0.000000,851.000000) scale(0.100000,-0.100000)"
fill="#000000" stroke="none">
<path d="M7021 7744 c-30 -8 -82 -26 -115 -41 -66 -29 -221 -127 -234 -147 -4
-7 -13 -15 -19 -17 -30 -9 -250 -223 -423 -410 -47 -51 -101 -109 -120 -130
-31 -33 -67 -73 -158 -177 -13 -15 -47 -52 -75 -83 -29 -31 -72 -80 -97 -108
-25 -29 -65 -74 -90 -100 -25 -27 -74 -81 -110 -121 -36 -40 -93 -101 -127
-137 -35 -36 -63 -66 -63 -68 0 -3 -36 -40 -80 -84 -44 -44 -80 -84 -80 -90 0
-6 -4 -11 -10 -11 -11 0 -150 -140 -150 -152 0 -4 -4 -8 -8 -8 -5 0 -56 -46
-114 -102 -117 -114 -259 -246 -327 -305 -24 -21 -71 -64 -105 -95 -33 -32
-67 -58 -73 -58 -7 0 -13 -7 -13 -15 0 -8 -5 -15 -10 -15 -6 0 -25 -14 -43
-31 -17 -17 -48 -43 -67 -58 -19 -14 -37 -28 -40 -31 -5 -5 -100 -84 -130
-107 -24 -19 -183 -146 -204 -163 -10 -8 -24 -21 -31 -27 -8 -7 -17 -13 -22
-13 -4 0 -22 -12 -38 -28 -17 -15 -43 -34 -57 -42 -22 -13 -169 -120 -205
-150 -6 -5 -62 -46 -125 -90 -62 -45 -121 -88 -131 -96 -9 -8 -19 -14 -22 -14
-4 0 -125 -87 -151 -109 -6 -5 -20 -12 -31 -15 -12 -4 -24 -13 -27 -21 -3 -8
-13 -15 -23 -15 -10 0 -24 -9 -31 -20 -7 -11 -16 -20 -21 -20 -9 0 -141 -91
-184 -126 -9 -7 -21 -14 -25 -14 -5 0 -17 -8 -28 -17 -25 -23 -74 -53 -96 -60
-10 -3 -18 -9 -18 -14 0 -5 -6 -9 -13 -9 -8 0 -22 -9 -32 -20 -10 -11 -22 -20
-27 -20 -5 0 -62 -36 -127 -80 -65 -44 -123 -80 -128 -80 -6 0 -16 -7 -23 -15
-6 -7 -35 -28 -63 -45 -29 -17 -72 -44 -97 -60 -25 -16 -52 -33 -60 -37 -17
-8 -32 -19 -61 -46 -10 -9 -24 -17 -29 -17 -6 0 -44 -22 -84 -49 -41 -27 -78
-50 -83 -52 -8 -4 -193 -118 -261 -161 -15 -10 -37 -23 -49 -29 -13 -7 -23
-16 -23 -21 0 -4 -6 -8 -13 -8 -7 0 -23 -9 -35 -20 -12 -11 -26 -20 -32 -20
-5 0 -10 -4 -10 -10 0 -5 -5 -10 -11 -10 -14 0 -373 -239 -377 -251 -2 -5 -10
-9 -18 -9 -8 0 -14 -3 -14 -7 0 -5 -20 -21 -45 -36 -25 -16 -45 -33 -45 -37 0
-5 -8 -11 -17 -14 -10 -4 -39 -25 -64 -49 -26 -23 -66 -58 -90 -77 -48 -38
-57 -48 -109 -106 -128 -143 -183 -251 -196 -384 -8 -75 32 -250 57 -250 5 0
8 -3 7 -7 -3 -15 21 -60 57 -108 43 -57 53 -67 115 -115 25 -19 47 -38 48 -43
2 -4 32 -26 65 -49 34 -23 64 -45 67 -49 7 -10 184 -99 197 -99 6 0 39 -9 74
-20 35 -12 80 -23 99 -26 19 -3 55 -10 80 -14 78 -15 337 -9 460 10 123 19
349 75 365 91 5 5 22 9 37 9 15 0 28 4 28 9 0 5 12 11 27 14 31 5 132 41 178
62 17 7 53 23 80 36 178 78 228 101 235 110 3 3 22 12 43 18 20 7 37 16 37 21
0 5 13 11 29 15 16 3 35 13 42 21 6 8 16 14 21 14 5 0 40 17 76 39 37 21 83
48 103 59 75 42 84 47 89 52 6 6 46 29 82 47 15 8 30 19 33 24 4 5 23 16 43
25 20 8 39 18 42 22 4 7 99 71 142 97 9 6 37 25 63 43 25 17 49 32 53 32 4 0
15 9 25 20 9 11 24 20 32 20 8 0 15 3 15 8 0 4 18 18 40 32 22 14 40 28 40 32
0 5 7 8 15 8 8 0 15 5 15 10 0 6 6 10 13 10 8 0 27 13 43 30 16 16 34 30 39
30 9 0 184 130 261 194 18 14 34 26 38 26 3 0 14 6 23 14 30 24 138 109 169
133 56 43 71 54 234 185 91 72 172 140 181 150 9 10 19 18 23 18 6 0 45 31 78
63 10 9 21 17 24 17 4 0 23 15 44 33 38 33 72 60 150 122 25 20 57 47 73 60
15 14 30 25 33 25 4 0 12 5 47 35 7 6 52 42 102 80 106 83 123 96 140 113 8 6
16 12 19 12 6 0 21 12 69 54 12 10 38 30 57 45 19 14 42 34 51 43 9 10 20 18
25 18 5 0 30 19 56 43 67 62 87 77 98 77 5 0 15 8 22 18 11 15 93 85 137 117
7 6 27 22 43 38 16 15 31 27 33 27 4 0 69 57 111 98 13 12 28 22 34 22 5 0 10
4 10 8 0 4 35 37 77 72 67 57 148 131 271 248 18 17 35 32 37 32 2 0 42 37 88
83 46 45 110 107 143 139 107 102 258 261 445 468 14 15 36 42 50 60 13 18 33
42 44 54 11 11 36 41 55 66 19 25 39 50 45 56 5 6 17 22 25 34 8 12 38 53 65
90 28 38 64 92 80 120 17 29 35 57 41 64 7 7 24 37 38 67 15 30 31 61 36 69 9
15 26 54 54 123 72 179 93 504 47 735 -21 107 -95 290 -150 371 -10 14 -31 46
-47 71 -39 60 -41 63 -100 123 -59 60 -115 105 -159 128 -16 9 -51 28 -76 43
-86 49 -256 69 -358 40z"/>
<path d="M7401 4949 c-69 -13 -170 -49 -241 -84 -224 -112 -344 -285 -327
-470 11 -117 63 -210 192 -341 128 -130 252 -212 375 -248 l55 -16 -25 21
c-14 12 -39 33 -56 47 -115 99 -161 272 -114 425 96 311 515 383 710 122 40
-54 48 -46 49 46 2 99 -49 196 -157 305 -74 75 -198 173 -239 191 -36 14 -153
16 -222 2z"/>
<path d="M7561 4328 c-147 -73 -131 -297 26 -349 123 -40 248 51 248 183 0 47
-6 64 -30 100 -57 82 -157 109 -244 66z"/>
<path d="M3605 1935 c-99 -15 -167 -36 -267 -86 -149 -74 -248 -164 -301 -277
-29 -61 -32 -76 -32 -162 0 -86 3 -101 33 -164 92 -196 380 -438 548 -462 l39
-6 -32 21 c-55 35 -112 101 -145 169 -31 62 -33 73 -33 172 0 99 2 110 32 170
69 139 181 219 327 235 141 15 297 -56 379 -174 9 -14 19 -22 23 -18 3 3 9 34
11 69 4 52 1 74 -18 118 -45 108 -148 224 -292 331 -72 54 -91 62 -172 73 -11
1 -56 -3 -100 -9z"/>
<path d="M3734 1311 c-107 -49 -141 -192 -69 -287 77 -101 234 -95 309 13 25
36 30 53 30 102 0 51 -4 67 -30 103 -58 82 -151 109 -240 69z"/>
</g>
</svg>
